<?xml version="1.0" encoding="UTF-8"?>
<svg width="16px" height="16px" viewBox="0 0 16 16" version="1.1" xmlns="http://www.w3.org/2000/svg" xmlns:xlink="http://www.w3.org/1999/xlink">
    <title>Type</title>
    <g id="Type" stroke="none" stroke-width="1" fill="none" fill-rule="evenodd">
        <g id="fileType" transform="translate(3.000000, 1.000000)" fill-rule="nonzero">
            <path d="M10,8.8817842e-16 L10.001077,7.9158364 C9.90422037,7.87401885 9.80624545,7.83501967 9.70728321,7.79887509 L9.70728321,7.79887509 L9.68373777,7.65167367 L9.66408649,7.57420317 C9.61959111,7.44993003 9.51828858,7.35206808 9.38881524,7.31345735 C8.37353293,7.01551422 7.29402928,7.01551422 6.27874697,7.31345735 C6.12348127,7.35987534 6.00879636,7.49151279 5.98408682,7.65167367 L5.98408682,7.65167367 L5.96280933,7.7867816 C3.77940946,8.57094548 2.32234385,10.6414316 2.32221955,12.9623783 L2.32221955,12.9623783 L2.32133689,13.6956319 C1.999908,13.7888671 1.82158593,13.8918508 1.82158593,14.0001173 L1.82158593,14.0001173 L0,14 L0,5 L5,5 L5,8.8817842e-16 L10,8.8817842e-16 Z M4,8.8817842e-16 L4,4 L0,4 L4,8.8817842e-16 Z" id="Combined-Shape" fill="#9AA7B0"/>
            <g id="hardhat" transform="translate(2.820000, 8.090000)">
                <path d="M10,5.79713307 C10,5.79713307 8.47684584,5.5714806 7.67197496,5.50675857 C6.8990278,5.44466041 5.98307994,5.40880091 5.00044215,5.40880091 C4.01780436,5.40880091 3.1018565,5.44466041 2.32912799,5.50675857 C1.52403847,5.57235522 0.00110295607,5.88546989 0.00110295607,5.88546989 L0.00110295607,6.27904977 C0.00110295607,6.62889856 2.23947924,6.9131507 5.00044215,6.9131507 C7.76140506,6.9131507 9.99978134,6.62889856 9.99978134,6.27904977 L10,5.79713307 Z" id="Path" fill="#F5DA0C"/>
                <path d="M3.46329403,0.576733169 C1.63771572,1.22720236 0.418620086,2.95564797 0.418516292,4.89364857 L0.418516292,5.54261807 C1.06997722,5.3869798 1.73419662,5.29066945 2.40303355,5.25486744 C2.39851467,5.13037958 2.39618234,5.00494422 2.39603657,4.87856134 C2.39669254,3.17567236 2.80776487,1.64333466 3.46329403,0.576733169 Z" id="Path" fill="#F5DA0C"/>
                <path d="M9.58215923,4.89364857 C9.58371586,3.83025559 9.21380317,2.79971271 8.53632013,1.98006412 C8.8300192,2.91811552 8.97636477,3.8960639 8.97013263,4.87899865 C8.97013263,5.05785884 8.96554086,5.23467825 8.95635733,5.40945688 C9.16484784,5.44154628 9.37136667,5.48534667 9.57493372,5.54065017 L9.58215923,4.89364857 Z" id="Path" fill="#FFF04D"/>
                <path d="M9.58215923,4.89364857 C9.58371586,3.83025559 9.21380317,2.79971271 8.53632013,1.98006412 C8.8300192,2.91811552 8.97636477,3.8960639 8.97013263,4.87899865 C8.97013263,5.05785884 8.96554086,5.23467825 8.95635733,5.40945688 C9.16484784,5.44154628 9.37136667,5.48534667 9.57493372,5.54065017 L9.58215923,4.89364857 Z" id="Path" fill="#F5DA0C"/>
                <path d="M8.53632013,1.97984547 C7.30876221,0.491808078 5.28125753,-0.06898923 3.46351269,0.576733169 C2.80754621,1.64333466 2.39669254,3.17567236 2.39669254,4.87878 C2.39669254,5.00516287 2.39902486,5.13059824 2.40368951,5.2550861 C3.08589465,5.20239013 3.87567829,5.16981046 4.72143774,5.16390676 C4.72143774,5.16390676 4.91363592,5.16390676 5.00087946,5.16390676 C6.32379931,5.14803102 7.64607222,5.23039901 8.95679464,5.4103315 C8.96568663,5.2354071 8.9702784,5.0585877 8.97056994,4.87987327 C8.97677733,3.89654913 8.83028277,2.91822218 8.53632013,1.97984547 L8.53632013,1.97984547 Z" id="Path" fill="#FFF04D"/>
                <g id="Group" transform="translate(3.179479, 0.000000)" fill="#FFF04D">
                    <path d="M3.6640101,2.28290198 L3.3736356,0.468061389 C3.35300853,0.334537387 3.25734017,0.224825185 3.12786683,0.186214458 C2.28179824,-0.0620714861 1.38221186,-0.0620714861 0.536143269,0.186214458 C0.406755191,0.224896119 0.311184426,0.334593996 0.29059315,0.468061389 L0,2.28290198 L3.6640101,2.28290198 Z" id="Path"/>
                </g>
                <path d="M5.00087946,5.12542339 C4.91341726,5.12542339 4.82661103,5.12542339 4.74046077,5.12542339 L4.73083993,5.12542339 L4.72121909,5.12542339 C2.09013754,5.14379045 0.00132161157,5.420171 0.00132161157,5.75843104 L0.00132161157,6.24865666 C-0.00294109856,6.27738506 0.00318386677,6.30669185 0.0185953955,6.33130844 C0.152222984,6.23094778 0.30582018,6.16041237 0.469025711,6.12446034 C0.884680052,6.02332541 1.30714583,5.9525856 1.73307312,5.91280182 C1.9749735,5.88626799 2.21659141,5.96513438 2.39625523,6.12927076 C2.72521746,6.43042873 3.15505117,6.5974476 3.60104699,6.59741218 L6.39983731,6.59741218 C6.84582915,6.59741218 7.27565543,6.43041038 7.60462907,6.12927076 L7.60462907,6.12927076 C7.78427915,5.96494467 8.02601794,5.88598516 8.26802984,5.91258317 C8.69388556,5.95236287 9.11627894,6.0231028 9.53185859,6.12424168 C9.68642133,6.15396332 9.83239314,6.21783532 9.95911142,6.31119213 C9.96632705,6.31840776 9.97463596,6.32474877 9.98097697,6.33130844 C9.99649532,6.30657037 10.0026966,6.27711437 9.99846941,6.24821935 L9.99846941,5.75799373 C10,5.40923822 7.76162372,5.12542339 5.00087946,5.12542339 Z" id="Path" fill="#FFF04D"/>
                <polygon id="Path" fill="#232323" points="6.05392432 3.66961512 4.99956753 4.31858462 4.99956753 5.16150155"/>
                <polygon id="Path" fill="#15191F" points="5.00066081 5.16150155 5.00066081 4.31858462 3.94630402 3.66961512"/>
                <polygon id="Path" fill="#15191F" points="3.94630402 3.2845628 3.94630402 3.2845628 5.00066081 3.89417431 5.00066081 1.5792686"/>
                <polygon id="Path" fill="#232323" points="6.05392432 3.2845628 4.99956753 1.57904995 4.99956753 1.57904995 4.99956753 2.67473263 4.99956753 2.67473263 4.99956753 3.89395565 6.05392432 3.28434414 6.05392432 3.28434414"/>
            </g>
        </g>
    </g>
</svg>