<?xml version="1.0" encoding="UTF-8"?>
<svg width="16px" height="16px" viewBox="0 0 40 40" version="1.1" xmlns="http://www.w3.org/2000/svg" xmlns:xlink="http://www.w3.org/1999/xlink">
    <title>Logo</title>
    <g id="Logo" stroke="none" stroke-width="1" fill="none" fill-rule="evenodd">
        <g id="pluginIcon" transform="translate(2.000000, 8.000000)" fill-rule="nonzero">
            <g id="Group" transform="translate(0.000000, 0.000000)">
                <path d="M36,20.7980986 C36,20.7980986 30.516645,19.988536 27.6191099,19.7563358 C24.8365001,19.5335492 21.5390878,19.4048978 18.0015917,19.4048978 C14.4640957,19.4048978 11.1666834,19.5335492 8.38486077,19.7563358 C5.48653848,19.9916738 0.00397064186,21.1150204 0.00397064186,21.1150204 L0.00397064186,22.5270482 C0.00397064186,23.7821841 8.06212526,24.801982 18.0015917,24.801982 C27.9410582,24.801982 35.9992128,23.7821841 35.9992128,22.5270482 L36,20.7980986 Z" id="Path" fill="#F5DA0C"/>
                <path d="M12.4678585,2.06911816 C5.8957766,4.40277553 1.50703231,10.6038377 1.50665865,17.5567102 L1.50665865,19.8849873 C3.85191801,19.3266112 6.24310783,18.9810832 8.65092077,18.852638 C8.6346528,18.4060188 8.62625643,17.9560003 8.62573166,17.5025825 C8.62809314,11.3932087 10.1079535,5.89571362 12.4678585,2.06911816 Z" id="Path" fill="#F5DA0C"/>
                <path d="M34.4957555,17.5567102 C34.5013771,13.7416258 33.1696914,10.0443961 30.7307525,7.10378189 C31.7880691,10.4691843 32.3149132,13.9777232 32.2924775,17.5041514 C32.2924775,18.1458396 32.2759471,18.7802062 32.2428864,19.4072512 C32.9934522,19.5223768 33.73692,19.6795174 34.4697614,19.8779271 L34.4957555,17.5567102 Z" id="Path" fill="#FFF04D"/>
                <path d="M34.4957555,17.5567102 C34.5013771,13.7416258 33.1696914,10.0443961 30.7307525,7.10378189 C31.7880691,10.4691843 32.3149132,13.9777232 32.2924775,17.5041514 C32.2924775,18.1458396 32.2759471,18.7802062 32.2428864,19.4072512 C32.9934522,19.5223768 33.73692,19.6795174 34.4697614,19.8779271 L34.4957555,17.5567102 Z" id="Path" fill="#F5DA0C"/>
                <path d="M30.7307525,7.10299743 C26.311544,1.76443645 19.0125271,-0.247509379 12.4686457,2.06911816 C10.1071664,5.89571362 8.62809314,11.3932087 8.62809314,17.503367 C8.62809314,17.9567848 8.63648951,18.4068033 8.65328225,18.8534225 C11.1092207,18.6643676 13.9524419,18.5474831 16.9971759,18.5263027 C16.9971759,18.5263027 17.6890893,18.5263027 18.0031661,18.5263027 C22.7656775,18.4693461 27.52586,18.7648538 32.2444607,19.410389 C32.2764719,18.7828211 32.2930022,18.1484545 32.2940518,17.5072893 C32.3163984,13.979464 31.789018,10.4695669 30.7307525,7.10299743 L30.7307525,7.10299743 Z" id="Path" fill="#FFF04D"/>
                <g transform="translate(11.446125, 0.000000)" fill="#FFF04D" id="Path">
                    <path d="M13.1904364,8.19025887 L12.1450882,1.67924158 C12.0708307,1.20020387 11.7264246,0.806594624 11.2603206,0.668072756 C8.21447365,-0.222690919 4.9759627,-0.222690919 1.93011577,0.668072756 C1.46431869,0.806849111 1.12026393,1.20040697 1.04613534,1.67924158 L0,8.19025887"/>
                </g>
                <path d="M18.0031661,18.3882377 C17.6883022,18.3882377 17.3757997,18.3882377 17.0656588,18.3882377 L17.0310237,18.3882377 L16.9963887,18.3882377 C7.52449513,18.4541324 0.00475780164,19.4456897 0.00475780164,20.6592492 L0.00475780164,22.4180083 C-0.0105879548,22.5210758 0.0114619204,22.6262184 0.0669434239,22.7145342 C0.548002744,22.354475 1.10095265,22.1014185 1.68849256,21.9724351 C3.18484819,21.6095981 4.70572498,21.3558083 6.23906322,21.2130779 C7.1099046,21.1178837 7.97972909,21.4008289 8.62651882,21.9896932 C9.81078286,23.0701433 11.3581842,23.669349 12.9637692,23.6692219 L23.0394143,23.6692219 C24.6449849,23.6692219 26.1923596,23.0700775 27.3766647,21.9896932 L27.3766647,21.9896932 C28.0234049,21.4001483 28.8936646,21.116869 29.7649074,21.2122934 C31.297988,21.3550092 32.8186042,21.6087994 34.3146909,21.9716506 C34.8711168,22.0782815 35.3966153,22.3074321 35.8528011,22.6423639 C35.8787774,22.668251 35.9086895,22.6910004 35.9315171,22.7145342 C35.9873832,22.6257826 36.0097077,22.5201047 35.9944899,22.4164394 L35.9944899,20.6576803 C36,19.4064667 27.9418454,18.3882377 18.0031661,18.3882377 Z" id="Path" fill="#FFF04D"/>
                <polygon id="Path" fill="#232323" points="21.7941275 13.1653036 17.9984431 15.4935807 17.9984431 18.5176736"/>
                <polygon id="Path" fill="#15191F" points="18.0023789 18.5176736 18.0023789 15.4935807 14.2066945 13.1653036"/>
                <polygon id="Path" fill="#15191F" points="14.2066945 11.7838697 14.2066945 11.7838697 18.0023789 13.970944 18.0023789 5.66586686"/>
                <polygon id="Path" fill="#232323" points="21.7941275 11.7838697 17.9984431 5.6650824 17.9984431 5.6650824 17.9984431 9.59601103 17.9984431 9.59601103 17.9984431 13.9701595 21.7941275 11.7830853 21.7941275 11.7830853"/>
            </g>
        </g>
    </g>
</svg>